<svg width="785" height="250" viewBox="0 0 785 250" fill="none" xmlns="http://www.w3.org/2000/svg">
<path d="M148.4 111.298C156 102.798 160.4 91.3977 160 78.8977C158.8 54.2977 137.7 35.0977 112.9 35.0977H0V194.998H123.9C149.3 194.998 170 174.398 170 149.098C170 126.998 154.6 115.498 148.4 111.298ZM100 65.8977C110.6 65.8977 119.9 70.8977 119.9 82.0977C119.8 93.1977 110.4 97.7977 100 97.7977H40V65.8977H100ZM40 164.298L39.8 128.598H110C120.6 128.598 130 135.198 130 146.398C129.8 157.498 120.3 164.198 110 164.198H40V164.298Z" fill="#0047FF"/>
<path d="M230 55H190V195H230V55Z" fill="#0047FF"/>
<path d="M210 45C222.4 45 232.5 34.9 232.5 22.5C232.5 10.1 222.4 0 210 0C197.6 0 187.5 10.1 187.5 22.5C187.5 34.9 197.6 45 210 45Z" fill="#0047FF"/>
<path d="M350 55.9C380 60.8 405 84.1 405 120.7V195H365V124.8C365 99.8 350 86.6 330 86.6C311.4 86.6 295 96.7 295 124.8V195H255V55H295V65C310.2 57.4 325.5 55 338.4 55C342.5 55 346.4 55.4 350 55.9Z" fill="#0047FF"/>
<path d="M540.002 55V65.3C534.202 62.5 516.902 55 493.802 55C455.702 55 420.002 78.7 420.002 118.7C420.002 158.7 455.402 190 493.702 190C513.502 190 528.902 185.7 539.902 177.9C539.902 189.8 531.502 215 494.902 215C471.702 215 455.902 203.2 449.902 195L419.902 215.1C433.202 235.4 462.402 250 497.802 250C522.402 250 542.902 242.8 557.302 229.9C571.702 217 579.902 198.4 579.902 176.1V55H539.902H540.002ZM500.002 155C477.902 155 460.002 139.7 460.002 120.8C460.002 101.9 477.902 86.6 500.002 86.6C522.102 86.6 540.002 101.9 540.002 120.8C540.002 139.7 522.102 155 500.002 155Z" fill="#0047FF"/>
<path d="M718.2 120C742.3 90.7 769.3 86.6 785 86.6V45C761.9 45 725.3 51.5 693.1 85.7C662 51.6 622.3 45 600 45V86.6C616.5 86.6 645.9 91.8 667.6 120C646 148.2 616.5 153.4 600 153.4V195C622.3 195 661.9 188.3 693.1 154.3C725.4 188.5 762 195 785 195V153.4C769.3 153.4 742.3 149.3 718.2 120Z" fill="#0047FF"/>
</svg>
